# xmcd CD database file
# Copyright (C) 1997 Ti Kan
# 
# Track frame offsets:
#     150
#     23965
#     48630
#     76157
#     108207
#     125455
#     148332
#     170655
#     199580
# 
# Disc length: 2947 seconds
# 
# Revision: 0
# Processed by: cddbd v1.4b41PL1 Copyright (c) Steve Scherf et al.
# Submitted via: DiscPlay 4.0.1
# 
DISCID=7a0b8109
DTITLE=Luther Vandross - Luther Vandross
DYEAR=1900
DGENRE=
TTITLE0=Bad Boy - Having A Party
TTITLE1=Since I Lost My Baby
TTITLE2=She Loves Me Back
TTITLE3=A House Is Not A Home
TTITLE4=Never Too Much
TTITLE5=She's A Super Lady
TTITLE6=Sugar And Spice (I Found Me A Girl)
TTITLE7=Better Love
TTITLE8=You're The Sweetest One
EXTD=
EXTT0=
EXTT1=
EXTT2=
EXTT3=
EXTT4=
EXTT5=
EXTT6=
EXTT7=
EXTT8=
PLAYORDER=
